<svg id="visual" viewBox="0 0 960 540" width="960" height="540" xmlns="http://www.w3.org/2000/svg" xmlns:xlink="http://www.w3.org/1999/xlink" version="1.1"><path d="M0 71L26.7 97.2C53.3 123.3 106.7 175.7 160 186.5C213.3 197.3 266.7 166.7 320 158.5C373.3 150.3 426.7 164.7 480 184.5C533.3 204.3 586.7 229.7 640 224.3C693.3 219 746.7 183 800 159.5C853.3 136 906.7 125 933.3 119.5L960 114L960 0L933.3 0C906.7 0 853.3 0 800 0C746.7 0 693.3 0 640 0C586.7 0 533.3 0 480 0C426.7 0 373.3 0 320 0C266.7 0 213.3 0 160 0C106.7 0 53.3 0 26.7 0L0 0Z" fill="#003664"></path><path d="M0 104L26.7 132.7C53.3 161.3 106.7 218.7 160 235.7C213.3 252.7 266.7 229.3 320 231.2C373.3 233 426.7 260 480 271.7C533.3 283.3 586.7 279.7 640 262.7C693.3 245.7 746.7 215.3 800 201C853.3 186.7 906.7 188.3 933.3 189.2L960 190L960 112L933.3 117.5C906.7 123 853.3 134 800 157.5C746.7 181 693.3 217 640 222.3C586.7 227.7 533.3 202.3 480 182.5C426.7 162.7 373.3 148.3 320 156.5C266.7 164.7 213.3 195.3 160 184.5C106.7 173.7 53.3 121.3 26.7 95.2L0 69Z" fill="#002442"></path><path d="M0 158L26.7 188.5C53.3 219 106.7 280 160 300.7C213.3 321.3 266.7 301.7 320 308.8C373.3 316 426.7 350 480 359C533.3 368 586.7 352 640 332.3C693.3 312.7 746.7 289.3 800 275.8C853.3 262.3 906.7 258.7 933.3 256.8L960 255L960 188L933.3 187.2C906.7 186.3 853.3 184.7 800 199C746.7 213.3 693.3 243.7 640 260.7C586.7 277.7 533.3 281.3 480 269.7C426.7 258 373.3 231 320 229.2C266.7 227.3 213.3 250.7 160 233.7C106.7 216.7 53.3 159.3 26.7 130.7L0 102Z" fill="#001122"></path><path d="M0 303L26.7 319.3C53.3 335.7 106.7 368.3 160 371.2C213.3 374 266.7 347 320 347.8C373.3 348.7 426.7 377.3 480 398.8C533.3 420.3 586.7 434.7 640 425.7C693.3 416.7 746.7 384.3 800 370C853.3 355.7 906.7 359.3 933.3 361.2L960 363L960 253L933.3 254.8C906.7 256.7 853.3 260.3 800 273.8C746.7 287.3 693.3 310.7 640 330.3C586.7 350 533.3 366 480 357C426.7 348 373.3 314 320 306.8C266.7 299.7 213.3 319.3 160 298.7C106.7 278 53.3 217 26.7 186.5L0 156Z" fill="#000f1e"></path><path d="M0 541L26.7 541C53.3 541 106.7 541 160 541C213.3 541 266.7 541 320 541C373.3 541 426.7 541 480 541C533.3 541 586.7 541 640 541C693.3 541 746.7 541 800 541C853.3 541 906.7 541 933.3 541L960 541L960 361L933.3 359.2C906.7 357.3 853.3 353.7 800 368C746.7 382.3 693.3 414.7 640 423.7C586.7 432.7 533.3 418.3 480 396.8C426.7 375.3 373.3 346.7 320 345.8C266.7 345 213.3 372 160 369.2C106.7 366.3 53.3 333.7 26.7 317.3L0 301Z" fill="#000d1b"></path></svg>