<svg id="visual" viewBox="0 0 960 540" width="960" height="540" xmlns="http://www.w3.org/2000/svg" xmlns:xlink="http://www.w3.org/1999/xlink" version="1.1"><path d="M0 163L40 170.2C80 177.3 160 191.7 240 189C320 186.3 400 166.7 480 173.8C560 181 640 215 720 208.7C800 202.3 880 155.7 920 132.3L960 109L960 0L920 0C880 0 800 0 720 0C640 0 560 0 480 0C400 0 320 0 240 0C160 0 80 0 40 0L0 0Z" fill="#ff749e"></path><path d="M0 195L40 209.5C80 224 160 253 240 252.2C320 251.3 400 220.7 480 225.2C560 229.7 640 269.3 720 270.2C800 271 880 233 920 214L960 195L960 107L920 130.3C880 153.7 800 200.3 720 206.7C640 213 560 179 480 171.8C400 164.7 320 184.3 240 187C160 189.7 80 175.3 40 168.2L0 161Z" fill="#ff4e83"></path><path d="M0 276L40 289.5C80 303 160 330 240 334.5C320 339 400 321 480 329.2C560 337.3 640 371.7 720 365.5C800 359.3 880 312.7 920 289.3L960 266L960 193L920 212C880 231 800 269 720 268.2C640 267.3 560 227.7 480 223.2C400 218.7 320 249.3 240 250.2C160 251 80 222 40 207.5L0 193Z" fill="#ff0066"></path><path d="M0 417L40 417.8C80 418.7 160 420.3 240 408.7C320 397 400 372 480 377.5C560 383 640 419 720 420.7C800 422.3 880 389.7 920 373.3L960 357L960 264L920 287.3C880 310.7 800 357.3 720 363.5C640 369.7 560 335.3 480 327.2C400 319 320 337 240 332.5C160 328 80 301 40 287.5L0 274Z" fill="#dd005a"></path><path d="M0 541L40 541C80 541 160 541 240 541C320 541 400 541 480 541C560 541 640 541 720 541C800 541 880 541 920 541L960 541L960 355L920 371.3C880 387.7 800 420.3 720 418.7C640 417 560 381 480 375.5C400 370 320 395 240 406.7C160 418.3 80 416.7 40 415.8L0 415Z" fill="#bb004d"></path></svg>